HIERARCHY
ROOT hip
{
  OFFSET 0 0 0
  CHANNELS 6 Xposition Yposition Zposition Zrotation Yrotation Xrotation
  JOINT abdomen
  {
    OFFSET 0 20.6881 -0.73152
    CHANNELS 3 Zrotation Xrotation Yrotation
    JOINT chest
    {
      OFFSET 0 11.7043 -0.48768
      CHANNELS 3 Zrotation Xrotation Yrotation
      JOINT neck
      {
        OFFSET 0 22.1894 -2.19456
        CHANNELS 3 Zrotation Xrotation Yrotation
        JOINT head
        {
          OFFSET -0.24384 7.07133 1.2192
          CHANNELS 3 Zrotation Xrotation Yrotation
          JOINT leftEye
          {
            OFFSET 4.14528 8.04674 8.04672
            CHANNELS 3 Zrotation Xrotation Yrotation
            End Site
            {
              OFFSET 1 0 0
            }
          }
          JOINT rightEye
          {
            OFFSET -3.6576 8.04674 8.04672
            CHANNELS 3 Zrotation Xrotation Yrotation
            End Site
            {
              OFFSET 1 0 0
            }
          }
        }
      }
      JOINT rCollar
      {
        OFFSET -2.68224 19.2634 -4.8768
        CHANNELS 3 Zrotation Xrotation Yrotation
        JOINT rShldr
        {
          OFFSET -8.77824 -1.95073 1.46304
          CHANNELS 3 Zrotation Xrotation Yrotation
          JOINT rForeArm
          {
            OFFSET -28.1742 -1.7115 0.48768
            CHANNELS 3 Zrotation Xrotation Yrotation
            JOINT rHand
            {
              OFFSET -22.5879 0.773209 7.07136
              CHANNELS 3 Zrotation Xrotation Yrotation
              JOINT rThumb1
              {
                OFFSET -1.2192 -0.487915 3.41376
                CHANNELS 3 Zrotation Xrotation Yrotation
                JOINT rThumb2
                {
                  OFFSET -3.37035 -0.52449 3.41376
                  CHANNELS 3 Zrotation Xrotation Yrotation
                  End Site
                  {
                    OFFSET -1.78271 -1.18214 1.43049
                  }
                }
              }
              JOINT rIndex1
              {
                OFFSET -7.75947 0.938293 5.60832
                CHANNELS 3 Zrotation Xrotation Yrotation
                JOINT rIndex2
                {
                  OFFSET -2.54057 -0.884171 1.56538
                  CHANNELS 3 Zrotation Xrotation Yrotation
                  End Site
                  {
                    OFFSET -1.62519 -0.234802 1.16502
                  }
                }
              }
              JOINT rMid1
              {
                OFFSET -8.24714 1.18213 3.41376
                CHANNELS 3 Zrotation Xrotation Yrotation
                JOINT rMid2
                {
                  OFFSET -3.10165 -0.590103 1.0647
                  CHANNELS 3 Zrotation Xrotation Yrotation
                  End Site
                  {
                    OFFSET -2.48547 -0.328903 0.83742
                  }
                }
              }
              JOINT rRing1
              {
                OFFSET -8.82822 0.546677 1.51678
                CHANNELS 3 Zrotation Xrotation Yrotation
                JOINT rRing2
                {
                  OFFSET -2.60934 -0.819778 -0.0198488
                  CHANNELS 3 Zrotation Xrotation Yrotation
                  End Site
                  {
                    OFFSET -2.33842 -0.294052 0.168128
                  }
                }
              }
              JOINT rPinky1
              {
                OFFSET -8.27202 -0.0477905 -0.4584
                CHANNELS 3 Zrotation Xrotation Yrotation
                JOINT rPinky2
                {
                  OFFSET -1.82734 -0.647385 -0.700984
                  CHANNELS 3 Zrotation Xrotation Yrotation
                  End Site
                  {
                    OFFSET -1.69225 -0.51767 -0.607171
                  }
                }
              }
            }
          }
        }
      }
      JOINT lCollar
      {
        OFFSET 2.68224 19.2634 -4.8768
        CHANNELS 3 Zrotation Xrotation Yrotation
        JOINT lShldr
        {
          OFFSET 8.77824 -1.95073 1.46304
          CHANNELS 3 Zrotation Xrotation Yrotation
          JOINT lForeArm
          {
            OFFSET 28.1742 -1.7115 0.48768
            CHANNELS 3 Zrotation Xrotation Yrotation
            JOINT lHand
            {
              OFFSET 22.5879 0.773209 7.07136
              CHANNELS 3 Zrotation Xrotation Yrotation
              JOINT lThumb1
              {
                OFFSET 1.2192 -0.487915 3.41376
                CHANNELS 3 Zrotation Xrotation Yrotation
                JOINT lThumb2
                {
                  OFFSET 3.37035 -0.52449 3.41376
                  CHANNELS 3 Zrotation Xrotation Yrotation
                  End Site
                  {
                    OFFSET 1.78271 -1.18214 1.43049
                  }
                }
              }
              JOINT lIndex1
              {
                OFFSET 7.75947 0.938293 5.60832
                CHANNELS 3 Zrotation Xrotation Yrotation
                JOINT lIndex2
                {
                  OFFSET 2.54057 -0.884171 1.56538
                  CHANNELS 3 Zrotation Xrotation Yrotation
                  End Site
                  {
                    OFFSET 1.62519 -0.234802 1.16502
                  }
                }
              }
              JOINT lMid1
              {
                OFFSET 8.24714 1.18213 3.41376
                CHANNELS 3 Zrotation Xrotation Yrotation
                JOINT lMid2
                {
                  OFFSET 3.10165 -0.590103 1.0647
                  CHANNELS 3 Zrotation Xrotation Yrotation
                  End Site
                  {
                    OFFSET 2.48547 -0.328903 0.83742
                  }
                }
              }
              JOINT lRing1
              {
                OFFSET 8.82822 0.546677 1.51678
                CHANNELS 3 Zrotation Xrotation Yrotation
                JOINT lRing2
                {
                  OFFSET 2.60934 -0.819778 -0.0198488
                  CHANNELS 3 Zrotation Xrotation Yrotation
                  End Site
                  {
                    OFFSET 2.33842 -0.294052 0.168128
                  }
                }
              }
              JOINT lPinky1
              {
                OFFSET 8.27202 -0.0477905 -0.4584
                CHANNELS 3 Zrotation Xrotation Yrotation
                JOINT lPinky2
                {
                  OFFSET 1.82734 -0.647385 -0.700984
                  CHANNELS 3 Zrotation Xrotation Yrotation
                  End Site
                  {
                    OFFSET 1.69225 -0.51767 -0.607171
                  }
                }
              }
            }
          }
        }
      }
    }
  }
  JOINT rButtock
  {
    OFFSET -8.77824 4.35084 1.2192
    CHANNELS 3 Zrotation Xrotation Yrotation
    JOINT rThigh
    {
      OFFSET 0 -1.70687 -2.19456
      CHANNELS 3 Zrotation Xrotation Yrotation
      JOINT rShin
      {
        OFFSET 0 -36.8199 0.73152
        CHANNELS 3 Zrotation Xrotation Yrotation
        JOINT rFoot
        {
          OFFSET 0.73152 -45.1104 -5.12064
          CHANNELS 3 Zrotation Xrotation Yrotation
          End Site
          {
            OFFSET -1.1221 -3.69964 12.103
          }
        }
      }
    }
  }
  JOINT lButtock
  {
    OFFSET 8.77824 4.35084 1.2192
    CHANNELS 3 Zrotation Xrotation Yrotation
    JOINT lThigh
    {
      OFFSET 0 -1.70687 -2.19456
      CHANNELS 3 Zrotation Xrotation Yrotation
      JOINT lShin
      {
        OFFSET 0 -36.8199 0.73152
        CHANNELS 3 Zrotation Xrotation Yrotation
        JOINT lFoot
        {
          OFFSET -0.73152 -45.1104 -5.12064
          CHANNELS 3 Zrotation Xrotation Yrotation
          End Site
          {
            OFFSET 1.1221 -3.69964 12.103
          }
        }
      }
    }
  }
}
MOTION
Frames:	6
Frame Time:	0.00833333
68.4812 84.8839 -98.2024 0.0 0.0 0.0 -0.194077 -0.000752048 -0.00553941 -0.0535363 -0.00112971 -0.00927447 1.66996e-15 -7.95139e-16 9.93923e-17 5.03795e-15 3.18055e-15 2.91965e-16 -0.0 0.0 0.0 -0.0 0.0 0.0 8.43541e-16 7.76503e-19 1.98785e-16 1.9849e-14 3.97569e-16 1.98785e-15 3.02799e-13 -8.56762e-14 1.27222e-14 3.44291e-12 1.09903e-13 2.03556e-13 8.12272e-12 4.63583e-14 4.89805e-13 1.40203e-11 7.95139e-14 8.38871e-13 8.12671e-12 4.92986e-14 4.77083e-13 7.73091 5.47488 0.417314 8.12259e-12 4.67144e-14 4.89805e-13 2.90554 0.965183 0.102902 8.13371e-12 4.7112e-14 4.86625e-13 10.2786 0.731801 0.0259123 8.12214e-12 4.6118e-14 4.92986e-13 2.22167 -0.733487 -0.20892 8.46185e-16 7.76503e-19 -9.93923e-17 1.51443e-14 1.92573e-16 1.98785e-16 2.99072e-13 9.40251e-14 1.90833e-14 3.4475e-12 -7.75509e-14 2.16278e-13 8.12903e-12 3.3425e-14 4.86625e-13 1.40429e-11 5.40694e-14 8.50003e-13 8.12274e-12 3.61788e-14 4.99347e-13 -7.73091 5.47488 -0.417314 8.12925e-12 3.3694e-14 4.86625e-13 -2.90554 0.965183 -0.102902 8.11496e-12 3.42904e-14 4.8901e-13 -10.2786 0.731801 -0.0259123 8.13745e-12 3.45885e-14 4.83444e-13 -2.22167 -0.733487 0.20892 -2.03217e-16 0.0 -3.88251e-19 0.355848 -2.82714 -0.0340693 -0.00665502 -0.431853 -0.0584469 -0.502538 3.25829 0.123799 2.03217e-16 0.0 3.88251e-19 -0.651367 -3.58303 0.0525573 0.00446006 0.937453 0.0381208 0.504976 2.64491 -0.111593
69.8244 83.9581 -98.518 4.3078 3.2928 0.6778 -1.15712 3.3021 -0.627568 0.708999 -1.3982 -0.177385 -3.81369 -1.33346 -2.13814 4.8398 2.26926 -3.18452 -0.0 0.0 0.0 -0.0 0.0 0.0 4.65275e-14 -1.10948e-14 2.68825e-15 22.5406 0.81122 -1.04803 -3.17495 -1.28303 5.11882 0.0348316 4.14345 0.576843 -2.91706e-10 -3.45737e-11 -1.1359e-10 -5.04586e-10 -5.96783e-11 -1.92408e-10 -2.91702e-10 -3.45707e-11 -1.13603e-10 7.73091 5.47488 0.417314 -2.91707e-10 -3.45727e-11 -1.13591e-10 2.90554 0.965183 0.102902 -2.91697e-10 -3.45722e-11 -1.13593e-10 10.2786 0.731801 0.0259123 -2.91708e-10 -3.45723e-11 -1.13586e-10 2.22167 -0.733487 -0.20892 4.6532e-14 -1.10933e-14 2.38658e-15 -21.729 6.02918 -0.938129 5.67527 -2.95409 -8.41948 -0.000774562 0.625064 -0.087829 -3.05131e-10 -2.65901e-10 -3.07204e-10 -5.27885e-10 -4.58911e-10 -5.30794e-10 -3.05137e-10 -2.65898e-10 -3.07193e-10 -7.73091 5.47488 -0.417314 -3.05131e-10 -2.659e-10 -3.07204e-10 -2.90554 0.965183 -0.102902 -3.05142e-10 -2.659e-10 -3.07203e-10 -10.2786 0.731801 -0.0259123 -3.05123e-10 -2.65899e-10 -3.07211e-10 -2.22167 -0.733487 0.20892 -2.03217e-16 0.0 -3.88251e-19 0.087077 -8.98201 -0.763953 -0.0151945 6.57358 0.0253574 -0.514634 2.94585 0.0390094 2.03217e-16 0.0 3.88251e-19 -1.88982 -0.315594 -0.977252 -0.0137545 7.00912 -0.0900183 0.597743 4.65527 -2.91089
69.6646 84.0623 -97.7214 4.116 3.1842 0.6193 -2.12102 6.79586 -1.28432 1.50626 -2.87372 -0.354399 -7.95485 -2.74178 -4.40174 10.2276 4.64335 -6.56428 -0.0 0.0 0.0 -0.0 0.0 0.0 9.6453e-14 -2.21656e-14 4.31114e-15 46.4006 1.65264 -2.15549 -6.27931 -2.60294 10.5322 -0.0200628 8.53559 1.19864 -6.06746e-10 -8.23273e-11 -2.54153e-10 -1.0497e-09 -1.4209e-10 -4.31215e-10 -6.06741e-10 -8.23243e-11 -2.54168e-10 7.73091 5.47488 0.417314 -6.06747e-10 -8.23255e-11 -2.54157e-10 2.90554 0.965183 0.102902 -6.06738e-10 -8.2325e-11 -2.54156e-10 10.2786 0.731801 0.0259123 -6.06748e-10 -8.23241e-11 -2.54149e-10 2.22167 -0.733487 -0.20892 9.64583e-14 -2.21625e-14 4.00365e-15 -44.4741 12.3938 -1.98764 10.7608 -5.88108 -17.4204 0.000496019 1.27455 -0.179125 -6.41104e-10 -5.28241e-10 -6.45877e-10 -1.1091e-09 -9.11533e-10 -1.11604e-09 -6.41109e-10 -5.28238e-10 -6.45868e-10 -7.73091 5.47488 -0.417314 -6.41103e-10 -5.28241e-10 -6.45879e-10 -2.90554 0.965183 -0.102902 -6.41111e-10 -5.2824e-10 -6.4588e-10 -10.2786 0.731801 -0.0259123 -6.41095e-10 -5.28239e-10 -6.4589e-10 -2.22167 -0.733487 0.20892 -2.03217e-16 0.0 -3.88251e-19 -0.397587 -15.5204 -1.56206 -0.0468174 13.9881 0.118386 -0.528703 2.6398 -0.0527234 2.03217e-16 0.0 3.88251e-19 -3.10332 3.2226 -2.05961 -0.00317699 13.2878 -0.22886 0.897455 6.61697 -5.84296
69.4645 84.1615 -96.9328 3.8237 3.0817 0.5298 -2.86534 9.90308 -1.89677 2.20942 -4.19218 -0.514826 -11.7395 -3.97808 -6.42823 15.2767 6.72345 -9.61279 -0.0 0.0 0.0 -0.0 0.0 0.0 1.37895e-13 -3.32861e-14 7.66719e-15 67.7108 2.4304 -3.14662 -8.84503 -3.72638 15.3859 -0.150866 12.4252 1.76742 -8.91364e-10 -1.03814e-10 -3.41749e-10 -1.5418e-09 -1.79194e-10 -5.789e-10 -8.91359e-10 -1.03811e-10 -3.41764e-10 7.73091 5.47488 0.417314 -8.91366e-10 -1.03811e-10 -3.41754e-10 2.90554 0.965183 0.102902 -8.91358e-10 -1.03811e-10 -3.41752e-10 10.2786 0.731801 0.0259123 -8.91367e-10 -1.03809e-10 -3.41743e-10 2.22167 -0.733487 -0.20892 1.37904e-13 -3.32814e-14 7.35853e-15 -64.5688 18.0676 -2.94411 14.4934 -8.09833 -25.4968 0.00342789 1.87517 -0.263612 -9.31652e-10 -7.97769e-10 -9.22584e-10 -1.61174e-09 -1.37684e-09 -1.59408e-09 -9.31657e-10 -7.97766e-10 -9.22577e-10 -7.73091 5.47488 -0.417314 -9.3165e-10 -7.97769e-10 -9.22586e-10 -2.90554 0.965183 -0.102902 -9.31657e-10 -7.97768e-10 -9.22588e-10 -10.2786 0.731801 -0.0259123 -9.31644e-10 -7.97767e-10 -9.22601e-10 -2.22167 -0.733487 0.20892 -2.03217e-16 0.0 -3.88251e-19 -0.951523 -21.2777 -2.35641 -0.096728 20.5843 0.205588 -0.541601 2.32097 -0.130431 2.03217e-16 0.0 3.88251e-19 -4.01327 6.21038 -3.05456 0.0351807 19.1521 -0.36444 1.37611 8.59815 -8.578
69.2839 84.2235 -96.1479 3.5833 3.1131 0.4433 -3.21151 12.0482 -2.37513 2.69445 -5.11812 -0.632651 -14.4209 -4.80577 -7.84857 18.9464 8.1484 -11.777 -0.0 0.0 0.0 -0.0 0.0 0.0 1.5813e-13 -4.45307e-14 1.53561e-14 82.5861 3.05199 -3.84478 -10.5372 -4.47429 18.8128 -0.286645 15.0636 2.16773 -1.09993e-09 -5.96322e-11 -2.96924e-10 -1.90136e-09 -1.03028e-10 -4.9878e-10 -1.09992e-09 -5.96294e-11 -2.9694e-10 7.73091 5.47488 0.417314 -1.09993e-09 -5.96298e-11 -2.9693e-10 2.90554 0.965183 0.102902 -1.09992e-09 -5.96293e-11 -2.96927e-10 10.2786 0.731801 0.0259123 -1.09993e-09 -5.96274e-11 -2.96917e-10 2.22167 -0.733487 -0.20892 1.58147e-13 -4.45245e-14 1.50579e-14 -78.5067 22.0357 -3.53796 16.6363 -9.29198 -31.0275 0.00679901 2.35366 -0.330973 -1.10864e-09 -1.08527e-09 -1.04437e-09 -1.91794e-09 -1.87386e-09 -1.80409e-09 -1.10865e-09 -1.08526e-09 -1.04437e-09 -7.73091 5.47488 -0.417314 -1.10864e-09 -1.08527e-09 -1.04438e-09 -2.90554 0.965183 -0.102902 -1.10864e-09 -1.08527e-09 -1.04438e-09 -10.2786 0.731801 -0.0259123 -1.10863e-09 -1.08526e-09 -1.04439e-09 -2.22167 -0.733487 0.20892 -2.03217e-16 0.0 -3.88251e-19 -1.32165 -25.0942 -3.02206 -0.144042 25.1351 0.264888 -0.54981 1.97018 -0.17316 2.03217e-16 0.0 3.88251e-19 -4.42499 7.8319 -3.80532 0.0871194 23.981 -0.477381 1.97273 10.6811 -10.7827
69.1584 84.2633 -95.3724 3.4897 3.2498 0.4399 -3.08945 12.8343 -2.66819 2.89027 -5.49748 -0.695612 -15.454 -5.07215 -8.40721 20.4404 8.70641 -12.6602 -0.0 0.0 0.0 -0.0 0.0 0.0 1.47653e-13 -5.91362e-14 3.30736e-14 88.4292 3.41929 -4.13871 -11.201 -4.7712 20.2091 -0.344958 15.9764 2.31 -1.24056e-09 1.07959e-10 -1.33468e-11 -2.1414e-09 1.85973e-10 -7.07395e-12 -1.24056e-09 1.07962e-10 -1.33613e-11 7.73091 5.47488 0.417314 -1.24056e-09 1.07961e-10 -1.33529e-11 2.90554 0.965183 0.102902 -1.24056e-09 1.07961e-10 -1.33498e-11 10.2786 0.731801 0.0259123 -1.24056e-09 1.07963e-10 -1.3339e-11 2.22167 -0.733487 -0.20892 1.47694e-13 -5.91278e-14 3.28115e-14 -84.0588 23.6101 -3.51812 17.2549 -9.54889 -32.8581 0.00913815 2.64012 -0.37133 -1.1466e-09 -1.49505e-09 -9.36611e-10 -1.9837e-09 -2.58344e-09 -1.61667e-09 -1.1466e-09 -1.49505e-09 -9.36605e-10 -7.73091 5.47488 -0.417314 -1.1466e-09 -1.49505e-09 -9.36615e-10 -2.90554 0.965183 -0.102902 -1.1466e-09 -1.49505e-09 -9.36617e-10 -10.2786 0.731801 -0.0259123 -1.14659e-09 -1.49505e-09 -9.36629e-10 -2.22167 -0.733487 0.20892 -2.03217e-16 0.0 -3.88251e-19 -1.27501 -26.2235 -3.42968 -0.164009 26.8375 0.27401 -0.550424 1.56912 -0.171802 2.03217e-16 0.0 3.88251e-19 -4.27067 7.52939 -4.20585 0.132124 27.3813 -0.547091 2.63107 13.046 -12.2549
